<!DOCTYPE svg PUBLIC "-//W3C//DTD SVG 1.1//EN" "http://www.w3.org/Graphics/SVG/1.1/DTD/svg11.dtd">
<!-- Uploaded to: SVG Repo, www.svgrepo.com, Transformed by: SVG Repo Mixer Tools -->
<svg width="100px" height="100px" viewBox="0 0 16 16" fill="none" xmlns="http://www.w3.org/2000/svg" stroke="#000000" transform="matrix(1, 0, 0, 1, 0, 0)">
<g id="SVGRepo_bgCarrier" stroke-width="0"/>
<g id="SVGRepo_tracerCarrier" stroke-linecap="round" stroke-linejoin="round"/>
<g id="SVGRepo_iconCarrier"> <path d="M4 0H2V3H4V0Z" fill="#000000"/> <path fill-rule="evenodd" clip-rule="evenodd" d="M2 5H13C14.6569 5 16 6.34315 16 8V10C16 11.6569 14.6569 13 13 13H11.8293C11.4175 14.1652 10.3062 15 9 15H5C3.34315 15 2 13.6569 2 12V5ZM12 11V7H13C13.5523 7 14 7.44772 14 8V10C14 10.5523 13.5523 11 13 11H12Z" fill="#000000"/> <path d="M10 0H12V3H10V0Z" fill="#000000"/> <path d="M8 0H6V3H8V0Z" fill="#000000"/> </g>
</svg>